# xmcd
#
# Track frame offsets:
#	150
#	6475
#	17390
#	30527
#	44627
#	55505
#	72335
#	89497
#	106227
#	121545
#
# Disc length: 1938 seconds
#
# Revision: 4
# Processed by: cddbd v1.5.2PL0 Copyright (c) Steve Scherf et al.
# Submitted via: EasyCDDAExtractor 12.0.5.1
#
DISCID=7507900a
DTITLE=John Berry - O Holy Night
DYEAR=1995
DGENRE=Christmas
TTITLE0=Joy To The World
TTITLE1=God Rest Ye Merry Gentlemen
TTITLE2=I'll Be Home for Christmas
TTITLE3=Away in a Manger
TTITLE4=O Come All Ye Faithful
TTITLE5=Little Drummer Boy
TTITLE6=The Christmas Song
TTITLE7=Silent Night
TTITLE8=O Come Emmanuel
TTITLE9=O Holy Night
EXTD=YEAR: 1995
EXTT0=
EXTT1=
EXTT2=
EXTT3=
EXTT4=
EXTT5=
EXTT6=
EXTT7=
EXTT8=
EXTT9=
PLAYORDER=
